<mxfile host="app.diagrams.net" modified="2024-06-05T00:31:57.353Z" agent="Mozilla/5.0 (Windows NT 10.0; Win64; x64) AppleWebKit/537.36 (KHTML, like Gecko) Chrome/123.0.0.0 Safari/537.36 OPR/109.0.0.0" etag="hlAAb0MqFt_2qT4rFKC9" version="24.4.13" type="device">
  <diagram name="Page-1" id="0l7ROccEP6lqSc5vltxt">
    <mxGraphModel dx="1393" dy="797" grid="1" gridSize="10" guides="1" tooltips="1" connect="1" arrows="1" fold="1" page="1" pageScale="1" pageWidth="850" pageHeight="1100" math="0" shadow="0">
      <root>
        <mxCell id="0" />
        <mxCell id="1" parent="0" />
        <mxCell id="T_Avf6Wd_mKNB6yFoCMX-1" value="Start" style="ellipse;whiteSpace=wrap;html=1;fillColor=#ffe6cc;strokeColor=#d79b00;" vertex="1" parent="1">
          <mxGeometry x="365" width="120" height="80" as="geometry" />
        </mxCell>
        <mxCell id="T_Avf6Wd_mKNB6yFoCMX-2" value="" style="endArrow=classic;html=1;rounded=0;" edge="1" parent="1">
          <mxGeometry width="50" height="50" relative="1" as="geometry">
            <mxPoint x="425" y="80" as="sourcePoint" />
            <mxPoint x="425" y="130" as="targetPoint" />
          </mxGeometry>
        </mxCell>
        <mxCell id="T_Avf6Wd_mKNB6yFoCMX-3" value="User picks QR Code body type" style="shape=parallelogram;perimeter=parallelogramPerimeter;whiteSpace=wrap;html=1;fixedSize=1;fillColor=#d5e8d4;strokeColor=#82b366;" vertex="1" parent="1">
          <mxGeometry x="343" y="130" width="165" height="60" as="geometry" />
        </mxCell>
        <mxCell id="T_Avf6Wd_mKNB6yFoCMX-4" value="" style="endArrow=classic;html=1;rounded=0;" edge="1" parent="1">
          <mxGeometry width="50" height="50" relative="1" as="geometry">
            <mxPoint x="424" y="190" as="sourcePoint" />
            <mxPoint x="424" y="240" as="targetPoint" />
          </mxGeometry>
        </mxCell>
        <mxCell id="T_Avf6Wd_mKNB6yFoCMX-5" value="Request QR Code Body from API" style="rounded=1;whiteSpace=wrap;html=1;fillColor=#e1d5e7;strokeColor=#9673a6;" vertex="1" parent="1">
          <mxGeometry x="365" y="240" width="120" height="60" as="geometry" />
        </mxCell>
        <mxCell id="T_Avf6Wd_mKNB6yFoCMX-6" value="OK?" style="rhombus;whiteSpace=wrap;html=1;fillColor=#dae8fc;strokeColor=#6c8ebf;" vertex="1" parent="1">
          <mxGeometry x="385" y="340" width="80" height="80" as="geometry" />
        </mxCell>
        <mxCell id="T_Avf6Wd_mKNB6yFoCMX-8" value="NO" style="endArrow=classic;html=1;rounded=0;" edge="1" parent="1">
          <mxGeometry width="50" height="50" relative="1" as="geometry">
            <mxPoint x="465" y="379.5" as="sourcePoint" />
            <mxPoint x="560" y="380" as="targetPoint" />
          </mxGeometry>
        </mxCell>
        <mxCell id="T_Avf6Wd_mKNB6yFoCMX-9" value="YES" style="endArrow=classic;html=1;rounded=0;" edge="1" parent="1">
          <mxGeometry width="50" height="50" relative="1" as="geometry">
            <mxPoint x="425" y="420" as="sourcePoint" />
            <mxPoint x="425" y="470" as="targetPoint" />
          </mxGeometry>
        </mxCell>
        <mxCell id="T_Avf6Wd_mKNB6yFoCMX-10" value="Display ERROR" style="rounded=1;whiteSpace=wrap;html=1;fillColor=#e1d5e7;strokeColor=#9673a6;" vertex="1" parent="1">
          <mxGeometry x="560" y="350" width="120" height="60" as="geometry" />
        </mxCell>
        <mxCell id="T_Avf6Wd_mKNB6yFoCMX-12" value="QR Code Body" style="shape=parallelogram;perimeter=parallelogramPerimeter;whiteSpace=wrap;html=1;fixedSize=1;fillColor=#d5e8d4;strokeColor=#82b366;" vertex="1" parent="1">
          <mxGeometry x="365" y="470" width="120" height="60" as="geometry" />
        </mxCell>
        <mxCell id="T_Avf6Wd_mKNB6yFoCMX-15" value="Display QR Code Body" style="rounded=1;whiteSpace=wrap;html=1;fillColor=#e1d5e7;strokeColor=#9673a6;" vertex="1" parent="1">
          <mxGeometry x="365" y="570" width="120" height="60" as="geometry" />
        </mxCell>
        <mxCell id="T_Avf6Wd_mKNB6yFoCMX-16" value="" style="endArrow=classic;html=1;rounded=0;entryX=0.5;entryY=0;entryDx=0;entryDy=0;" edge="1" parent="1" target="T_Avf6Wd_mKNB6yFoCMX-6">
          <mxGeometry width="50" height="50" relative="1" as="geometry">
            <mxPoint x="425" y="300" as="sourcePoint" />
            <mxPoint x="425" y="350" as="targetPoint" />
          </mxGeometry>
        </mxCell>
        <mxCell id="T_Avf6Wd_mKNB6yFoCMX-17" value="" style="endArrow=classic;html=1;rounded=0;" edge="1" parent="1">
          <mxGeometry width="50" height="50" relative="1" as="geometry">
            <mxPoint x="425" y="530" as="sourcePoint" />
            <mxPoint x="425" y="570" as="targetPoint" />
          </mxGeometry>
        </mxCell>
        <mxCell id="T_Avf6Wd_mKNB6yFoCMX-18" value="" style="endArrow=classic;html=1;rounded=0;" edge="1" parent="1">
          <mxGeometry width="50" height="50" relative="1" as="geometry">
            <mxPoint x="619.5" y="410" as="sourcePoint" />
            <mxPoint x="619.5" y="460" as="targetPoint" />
          </mxGeometry>
        </mxCell>
        <mxCell id="T_Avf6Wd_mKNB6yFoCMX-19" value="Reload QR Code Body Type list" style="rounded=1;whiteSpace=wrap;html=1;fillColor=#e1d5e7;strokeColor=#9673a6;" vertex="1" parent="1">
          <mxGeometry x="560" y="460" width="120" height="60" as="geometry" />
        </mxCell>
        <mxCell id="T_Avf6Wd_mKNB6yFoCMX-20" value="" style="endArrow=classic;html=1;rounded=0;" edge="1" parent="1">
          <mxGeometry width="50" height="50" relative="1" as="geometry">
            <mxPoint x="619.5" y="520" as="sourcePoint" />
            <mxPoint x="619.5" y="570" as="targetPoint" />
          </mxGeometry>
        </mxCell>
        <mxCell id="T_Avf6Wd_mKNB6yFoCMX-21" value="" style="endArrow=classic;html=1;rounded=0;" edge="1" parent="1">
          <mxGeometry width="50" height="50" relative="1" as="geometry">
            <mxPoint x="425" y="630" as="sourcePoint" />
            <mxPoint x="425" y="680" as="targetPoint" />
          </mxGeometry>
        </mxCell>
        <mxCell id="T_Avf6Wd_mKNB6yFoCMX-24" value="Complete" style="strokeWidth=2;html=1;shape=mxgraph.flowchart.terminator;whiteSpace=wrap;fillColor=#ffe6cc;strokeColor=#d79b00;" vertex="1" parent="1">
          <mxGeometry x="570" y="570" width="100" height="60" as="geometry" />
        </mxCell>
        <mxCell id="T_Avf6Wd_mKNB6yFoCMX-25" value="User picks QR Code eye&lt;div&gt;type&lt;/div&gt;" style="shape=parallelogram;perimeter=parallelogramPerimeter;whiteSpace=wrap;html=1;fixedSize=1;fillColor=#d5e8d4;strokeColor=#82b366;" vertex="1" parent="1">
          <mxGeometry x="343" y="680" width="165" height="60" as="geometry" />
        </mxCell>
        <mxCell id="T_Avf6Wd_mKNB6yFoCMX-26" value="" style="endArrow=classic;html=1;rounded=0;" edge="1" parent="1">
          <mxGeometry width="50" height="50" relative="1" as="geometry">
            <mxPoint x="425" y="740" as="sourcePoint" />
            <mxPoint x="425" y="790" as="targetPoint" />
          </mxGeometry>
        </mxCell>
        <mxCell id="T_Avf6Wd_mKNB6yFoCMX-27" value="Request QR Code Eye from API" style="rounded=1;whiteSpace=wrap;html=1;fillColor=#e1d5e7;strokeColor=#9673a6;" vertex="1" parent="1">
          <mxGeometry x="365" y="790" width="120" height="60" as="geometry" />
        </mxCell>
        <mxCell id="T_Avf6Wd_mKNB6yFoCMX-30" value="" style="endArrow=classic;html=1;rounded=0;" edge="1" parent="1">
          <mxGeometry width="50" height="50" relative="1" as="geometry">
            <mxPoint x="425" y="850" as="sourcePoint" />
            <mxPoint x="425" y="900" as="targetPoint" />
          </mxGeometry>
        </mxCell>
        <mxCell id="T_Avf6Wd_mKNB6yFoCMX-31" value="OK?" style="rhombus;whiteSpace=wrap;html=1;fillColor=#dae8fc;strokeColor=#6c8ebf;" vertex="1" parent="1">
          <mxGeometry x="385" y="900" width="80" height="80" as="geometry" />
        </mxCell>
        <mxCell id="T_Avf6Wd_mKNB6yFoCMX-32" value="NO" style="endArrow=classic;html=1;rounded=0;" edge="1" parent="1">
          <mxGeometry width="50" height="50" relative="1" as="geometry">
            <mxPoint x="465" y="939.5" as="sourcePoint" />
            <mxPoint x="560" y="940" as="targetPoint" />
          </mxGeometry>
        </mxCell>
        <mxCell id="T_Avf6Wd_mKNB6yFoCMX-33" value="YES" style="endArrow=classic;html=1;rounded=0;" edge="1" parent="1">
          <mxGeometry width="50" height="50" relative="1" as="geometry">
            <mxPoint x="425" y="980" as="sourcePoint" />
            <mxPoint x="425" y="1030" as="targetPoint" />
          </mxGeometry>
        </mxCell>
        <mxCell id="T_Avf6Wd_mKNB6yFoCMX-34" value="Display ERROR" style="rounded=1;whiteSpace=wrap;html=1;fillColor=#e1d5e7;strokeColor=#9673a6;" vertex="1" parent="1">
          <mxGeometry x="560" y="910" width="120" height="60" as="geometry" />
        </mxCell>
        <mxCell id="T_Avf6Wd_mKNB6yFoCMX-35" value="QR Code Eye" style="shape=parallelogram;perimeter=parallelogramPerimeter;whiteSpace=wrap;html=1;fixedSize=1;fillColor=#d5e8d4;strokeColor=#82b366;" vertex="1" parent="1">
          <mxGeometry x="365" y="1030" width="120" height="60" as="geometry" />
        </mxCell>
        <mxCell id="T_Avf6Wd_mKNB6yFoCMX-36" value="" style="endArrow=classic;html=1;rounded=0;" edge="1" parent="1">
          <mxGeometry width="50" height="50" relative="1" as="geometry">
            <mxPoint x="619.5" y="970" as="sourcePoint" />
            <mxPoint x="619.5" y="1020" as="targetPoint" />
          </mxGeometry>
        </mxCell>
        <mxCell id="T_Avf6Wd_mKNB6yFoCMX-37" value="Reload QR Code Eye Type list" style="rounded=1;whiteSpace=wrap;html=1;fillColor=#e1d5e7;strokeColor=#9673a6;" vertex="1" parent="1">
          <mxGeometry x="560" y="1020" width="120" height="60" as="geometry" />
        </mxCell>
        <mxCell id="T_Avf6Wd_mKNB6yFoCMX-38" value="" style="endArrow=classic;html=1;rounded=0;entryX=0.5;entryY=0;entryDx=0;entryDy=0;entryPerimeter=0;" edge="1" parent="1" target="T_Avf6Wd_mKNB6yFoCMX-39">
          <mxGeometry width="50" height="50" relative="1" as="geometry">
            <mxPoint x="619.5" y="1080" as="sourcePoint" />
            <mxPoint x="619.5" y="1130" as="targetPoint" />
          </mxGeometry>
        </mxCell>
        <mxCell id="T_Avf6Wd_mKNB6yFoCMX-39" value="Complete" style="strokeWidth=2;html=1;shape=mxgraph.flowchart.terminator;whiteSpace=wrap;fillColor=#ffe6cc;strokeColor=#d79b00;" vertex="1" parent="1">
          <mxGeometry x="570" y="1160" width="100" height="60" as="geometry" />
        </mxCell>
        <mxCell id="T_Avf6Wd_mKNB6yFoCMX-40" value="" style="endArrow=classic;html=1;rounded=0;entryX=0.5;entryY=0;entryDx=0;entryDy=0;" edge="1" parent="1" target="T_Avf6Wd_mKNB6yFoCMX-41">
          <mxGeometry width="50" height="50" relative="1" as="geometry">
            <mxPoint x="425" y="1090" as="sourcePoint" />
            <mxPoint x="425" y="1140" as="targetPoint" />
          </mxGeometry>
        </mxCell>
        <mxCell id="T_Avf6Wd_mKNB6yFoCMX-41" value="Display QR Code Eye" style="rounded=1;whiteSpace=wrap;html=1;fillColor=#e1d5e7;strokeColor=#9673a6;" vertex="1" parent="1">
          <mxGeometry x="365" y="1170" width="120" height="60" as="geometry" />
        </mxCell>
        <mxCell id="T_Avf6Wd_mKNB6yFoCMX-42" value="" style="endArrow=classic;html=1;rounded=0;" edge="1" parent="1">
          <mxGeometry width="50" height="50" relative="1" as="geometry">
            <mxPoint x="425" y="1230" as="sourcePoint" />
            <mxPoint x="425" y="1280" as="targetPoint" />
          </mxGeometry>
        </mxCell>
        <mxCell id="T_Avf6Wd_mKNB6yFoCMX-43" value="User picks QR Code eyeball&amp;nbsp;&lt;span style=&quot;background-color: initial;&quot;&gt;type&lt;/span&gt;" style="shape=parallelogram;perimeter=parallelogramPerimeter;whiteSpace=wrap;html=1;fixedSize=1;fillColor=#d5e8d4;strokeColor=#82b366;" vertex="1" parent="1">
          <mxGeometry x="343" y="1280" width="165" height="60" as="geometry" />
        </mxCell>
        <mxCell id="T_Avf6Wd_mKNB6yFoCMX-45" value="" style="endArrow=classic;html=1;rounded=0;" edge="1" parent="1">
          <mxGeometry width="50" height="50" relative="1" as="geometry">
            <mxPoint x="425" y="1340" as="sourcePoint" />
            <mxPoint x="425" y="1390" as="targetPoint" />
          </mxGeometry>
        </mxCell>
        <mxCell id="T_Avf6Wd_mKNB6yFoCMX-46" value="Request QR Code Eyeball type from API" style="rounded=1;whiteSpace=wrap;html=1;fillColor=#e1d5e7;strokeColor=#9673a6;" vertex="1" parent="1">
          <mxGeometry x="365" y="1390" width="120" height="60" as="geometry" />
        </mxCell>
        <mxCell id="T_Avf6Wd_mKNB6yFoCMX-47" value="" style="endArrow=classic;html=1;rounded=0;" edge="1" parent="1">
          <mxGeometry width="50" height="50" relative="1" as="geometry">
            <mxPoint x="425" y="1450" as="sourcePoint" />
            <mxPoint x="425" y="1500" as="targetPoint" />
          </mxGeometry>
        </mxCell>
        <mxCell id="T_Avf6Wd_mKNB6yFoCMX-48" value="OK?" style="rhombus;whiteSpace=wrap;html=1;fillColor=#dae8fc;strokeColor=#6c8ebf;" vertex="1" parent="1">
          <mxGeometry x="385" y="1500" width="80" height="80" as="geometry" />
        </mxCell>
        <mxCell id="T_Avf6Wd_mKNB6yFoCMX-49" value="NO" style="endArrow=classic;html=1;rounded=0;" edge="1" parent="1">
          <mxGeometry width="50" height="50" relative="1" as="geometry">
            <mxPoint x="465" y="1539.5" as="sourcePoint" />
            <mxPoint x="560" y="1540" as="targetPoint" />
          </mxGeometry>
        </mxCell>
        <mxCell id="T_Avf6Wd_mKNB6yFoCMX-50" value="Display ERROR" style="rounded=1;whiteSpace=wrap;html=1;fillColor=#e1d5e7;strokeColor=#9673a6;" vertex="1" parent="1">
          <mxGeometry x="560" y="1510" width="120" height="60" as="geometry" />
        </mxCell>
        <mxCell id="T_Avf6Wd_mKNB6yFoCMX-51" value="" style="endArrow=classic;html=1;rounded=0;" edge="1" parent="1">
          <mxGeometry width="50" height="50" relative="1" as="geometry">
            <mxPoint x="619.5" y="1570" as="sourcePoint" />
            <mxPoint x="619.5" y="1620" as="targetPoint" />
          </mxGeometry>
        </mxCell>
        <mxCell id="T_Avf6Wd_mKNB6yFoCMX-52" value="YES" style="endArrow=classic;html=1;rounded=0;" edge="1" parent="1">
          <mxGeometry width="50" height="50" relative="1" as="geometry">
            <mxPoint x="425" y="1580" as="sourcePoint" />
            <mxPoint x="425" y="1630" as="targetPoint" />
          </mxGeometry>
        </mxCell>
        <mxCell id="T_Avf6Wd_mKNB6yFoCMX-53" value="QR Code Eyeball" style="shape=parallelogram;perimeter=parallelogramPerimeter;whiteSpace=wrap;html=1;fixedSize=1;fillColor=#d5e8d4;strokeColor=#82b366;" vertex="1" parent="1">
          <mxGeometry x="365" y="1630" width="120" height="60" as="geometry" />
        </mxCell>
        <mxCell id="T_Avf6Wd_mKNB6yFoCMX-55" value="" style="endArrow=classic;html=1;rounded=0;" edge="1" parent="1">
          <mxGeometry width="50" height="50" relative="1" as="geometry">
            <mxPoint x="425" y="1690" as="sourcePoint" />
            <mxPoint x="425" y="1740" as="targetPoint" />
          </mxGeometry>
        </mxCell>
        <mxCell id="T_Avf6Wd_mKNB6yFoCMX-56" value="Display QR Code Eyeball" style="rounded=1;whiteSpace=wrap;html=1;fillColor=#e1d5e7;strokeColor=#9673a6;" vertex="1" parent="1">
          <mxGeometry x="365" y="1740" width="120" height="60" as="geometry" />
        </mxCell>
        <mxCell id="T_Avf6Wd_mKNB6yFoCMX-57" value="Reload QR Code Eyeball Type list" style="rounded=1;whiteSpace=wrap;html=1;fillColor=#e1d5e7;strokeColor=#9673a6;" vertex="1" parent="1">
          <mxGeometry x="560" y="1620" width="120" height="60" as="geometry" />
        </mxCell>
        <mxCell id="T_Avf6Wd_mKNB6yFoCMX-58" value="" style="endArrow=classic;html=1;rounded=0;" edge="1" parent="1">
          <mxGeometry width="50" height="50" relative="1" as="geometry">
            <mxPoint x="619.5" y="1680" as="sourcePoint" />
            <mxPoint x="619.5" y="1730" as="targetPoint" />
          </mxGeometry>
        </mxCell>
        <mxCell id="T_Avf6Wd_mKNB6yFoCMX-59" value="Complete" style="strokeWidth=2;html=1;shape=mxgraph.flowchart.terminator;whiteSpace=wrap;fillColor=#ffe6cc;strokeColor=#d79b00;" vertex="1" parent="1">
          <mxGeometry x="570" y="1730" width="100" height="60" as="geometry" />
        </mxCell>
        <mxCell id="T_Avf6Wd_mKNB6yFoCMX-60" value="" style="endArrow=classic;html=1;rounded=0;" edge="1" parent="1">
          <mxGeometry width="50" height="50" relative="1" as="geometry">
            <mxPoint x="425" y="1800" as="sourcePoint" />
            <mxPoint x="425" y="1850" as="targetPoint" />
          </mxGeometry>
        </mxCell>
        <mxCell id="T_Avf6Wd_mKNB6yFoCMX-61" value="Complete" style="strokeWidth=2;html=1;shape=mxgraph.flowchart.terminator;whiteSpace=wrap;fillColor=#ffe6cc;strokeColor=#d79b00;" vertex="1" parent="1">
          <mxGeometry x="375" y="1850" width="100" height="60" as="geometry" />
        </mxCell>
      </root>
    </mxGraphModel>
  </diagram>
</mxfile>
